<svg xmlns="http://www.w3.org/2000/svg" xmlns:xlink="http://www.w3.org/1999/xlink" width="130" zoomAndPan="magnify" viewBox="0 0 97.5 30.000001" height="40" preserveAspectRatio="xMidYMid meet" version="1.0"><defs><g/><clipPath id="346de0b132"><path d="M 15.230469 8.34375 L 31.925781 8.34375 L 31.925781 18.503906 L 15.230469 18.503906 Z M 15.230469 8.34375 " clip-rule="nonzero"/></clipPath></defs><g clip-path="url(#346de0b132)"><path fill="#000000" d="M 30.03125 14.90625 L 31.898438 16.308594 C 31.710938 16.589844 31.488281 16.863281 31.234375 17.117188 C 30.28125 18.070312 29.128906 18.550781 27.785156 18.550781 C 26.441406 18.550781 25.296875 18.070312 24.351562 17.117188 C 24.234375 17.003906 24.121094 16.882812 24.019531 16.761719 C 23.933594 16.859375 23.839844 16.957031 23.746094 17.050781 C 22.746094 18.050781 21.546875 18.550781 20.140625 18.550781 C 19.753906 18.550781 19.375 18.511719 19.019531 18.433594 C 19.949219 18.234375 20.777344 17.773438 21.5 17.050781 C 22.304688 16.246094 22.78125 15.308594 22.941406 14.246094 C 22.976562 13.988281 22.996094 13.722656 22.996094 13.453125 C 22.996094 13.265625 22.988281 13.078125 22.972656 12.894531 C 22.855469 11.730469 22.363281 10.71875 21.503906 9.859375 C 20.777344 9.128906 19.949219 8.664062 19.019531 8.460938 C 19.375 8.382812 19.753906 8.34375 20.140625 8.34375 C 21.546875 8.34375 22.746094 8.847656 23.746094 9.851562 C 23.914062 10.023438 24.070312 10.199219 24.214844 10.382812 C 24.261719 10.335938 24.304688 10.289062 24.351562 10.242188 C 25.292969 9.28125 26.441406 8.800781 27.785156 8.800781 C 29.128906 8.800781 30.28125 9.28125 31.234375 10.242188 C 31.488281 10.492188 31.714844 10.757812 31.898438 11.039062 L 30.03125 12.441406 C 29.914062 12.238281 29.765625 12.050781 29.597656 11.871094 C 29.089844 11.375 28.484375 11.125 27.785156 11.125 C 27.085938 11.125 26.484375 11.375 25.980469 11.871094 C 25.488281 12.378906 25.246094 12.976562 25.246094 13.675781 C 25.246094 14.375 25.492188 14.972656 25.980469 15.480469 C 26.484375 15.976562 27.085938 16.226562 27.785156 16.226562 C 28.484375 16.226562 29.09375 15.976562 29.597656 15.480469 C 29.773438 15.296875 29.917969 15.109375 30.03125 14.90625 Z M 19.019531 11.015625 C 18.671875 10.855469 18.300781 10.773438 17.894531 10.773438 C 17.164062 10.773438 16.535156 11.035156 16.003906 11.554688 C 15.492188 12.085938 15.234375 12.714844 15.234375 13.441406 C 15.234375 14.171875 15.492188 14.804688 16.003906 15.332031 C 16.535156 15.851562 17.164062 16.117188 17.894531 16.117188 C 18.300781 16.117188 18.671875 16.035156 19.019531 15.875 C 18.742188 15.746094 18.488281 15.566406 18.253906 15.332031 C 17.738281 14.804688 17.484375 14.171875 17.484375 13.441406 C 17.484375 12.714844 17.738281 12.082031 18.253906 11.554688 C 18.484375 11.324219 18.742188 11.148438 19.019531 11.015625 Z M 19.019531 11.015625 " fill-opacity="1" fill-rule="nonzero"/></g><g fill="#000000" fill-opacity="1"><g transform="translate(31.909216, 16.89362)"><g><path d="M 5.125 -5.75 L 5.125 -5.171875 L 3.0625 -5.171875 L 3.0625 0.015625 L 2.359375 0.015625 L 2.359375 -5.171875 L 0.28125 -5.171875 L 0.28125 -5.75 Z M 5.125 -5.75 "/></g></g></g><g fill="#000000" fill-opacity="1"><g transform="translate(36.93027, 16.89362)"><g><path d="M 2.90625 -4.375 L 3.0625 -4.375 L 3.0625 -3.703125 L 2.875 -3.703125 C 2.445312 -3.710938 2.117188 -3.625 1.890625 -3.4375 C 1.671875 -3.257812 1.519531 -3.007812 1.4375 -2.6875 C 1.363281 -2.363281 1.328125 -2 1.328125 -1.59375 L 1.328125 0 L 0.625 0 L 0.625 -4.3125 L 1.328125 -4.3125 L 1.328125 -3.1875 C 1.453125 -3.539062 1.644531 -3.828125 1.90625 -4.046875 C 2.164062 -4.265625 2.5 -4.375 2.90625 -4.375 Z M 2.90625 -4.375 "/></g></g></g><g fill="#000000" fill-opacity="1"><g transform="translate(39.859924, 16.89362)"><g><path d="M 2.578125 -0.390625 C 3.003906 -0.390625 3.320312 -0.476562 3.53125 -0.65625 C 3.75 -0.832031 3.890625 -1.054688 3.953125 -1.328125 L 4.578125 -1.328125 C 4.546875 -1.109375 4.460938 -0.882812 4.328125 -0.65625 C 4.191406 -0.425781 3.984375 -0.234375 3.703125 -0.078125 C 3.421875 0.0664062 3.039062 0.140625 2.5625 0.140625 C 2.0625 0.140625 1.648438 0.0390625 1.328125 -0.15625 C 1.015625 -0.363281 0.785156 -0.640625 0.640625 -0.984375 C 0.492188 -1.335938 0.421875 -1.734375 0.421875 -2.171875 C 0.421875 -2.597656 0.5 -2.984375 0.65625 -3.328125 C 0.8125 -3.679688 1.046875 -3.957031 1.359375 -4.15625 C 1.679688 -4.351562 2.082031 -4.453125 2.5625 -4.453125 C 2.988281 -4.453125 3.351562 -4.359375 3.65625 -4.171875 C 3.957031 -3.992188 4.1875 -3.742188 4.34375 -3.421875 C 4.507812 -3.097656 4.59375 -2.726562 4.59375 -2.3125 C 4.59375 -2.25 4.59375 -2.191406 4.59375 -2.140625 C 4.59375 -2.097656 4.585938 -2.050781 4.578125 -2 L 1.09375 -2 C 1.125 -1.40625 1.269531 -0.988281 1.53125 -0.75 C 1.800781 -0.507812 2.148438 -0.390625 2.578125 -0.390625 Z M 2.5625 -3.9375 C 2.15625 -3.9375 1.820312 -3.828125 1.5625 -3.609375 C 1.3125 -3.398438 1.160156 -3.035156 1.109375 -2.515625 L 3.921875 -2.515625 C 3.898438 -3.015625 3.769531 -3.375 3.53125 -3.59375 C 3.289062 -3.820312 2.96875 -3.9375 2.5625 -3.9375 Z M 2.5625 -3.9375 "/></g></g></g><g fill="#000000" fill-opacity="1"><g transform="translate(44.440229, 16.89362)"><g><path d="M 2.984375 -4.453125 C 3.523438 -4.453125 3.914062 -4.304688 4.15625 -4.015625 C 4.394531 -3.734375 4.515625 -3.3125 4.515625 -2.75 L 4.515625 0 L 3.828125 0 L 3.828125 -2.671875 C 3.828125 -3.140625 3.734375 -3.457031 3.546875 -3.625 C 3.359375 -3.789062 3.109375 -3.875 2.796875 -3.875 C 2.316406 -3.875 1.953125 -3.6875 1.703125 -3.3125 C 1.453125 -2.945312 1.328125 -2.394531 1.328125 -1.65625 L 1.328125 0 L 0.625 0 L 0.625 -4.3125 L 1.328125 -4.3125 L 1.328125 -3.1875 C 1.453125 -3.582031 1.648438 -3.890625 1.921875 -4.109375 C 2.203125 -4.335938 2.554688 -4.453125 2.984375 -4.453125 Z M 2.984375 -4.453125 "/></g></g></g><g fill="#000000" fill-opacity="1"><g transform="translate(49.106954, 16.89362)"><g><path d="M 4.03125 -6.046875 L 4.71875 -6.046875 L 4.71875 0 L 4.03125 0 L 4.03125 -0.828125 C 3.882812 -0.523438 3.675781 -0.285156 3.40625 -0.109375 C 3.132812 0.0546875 2.800781 0.140625 2.40625 0.140625 C 1.957031 0.140625 1.582031 0.0390625 1.28125 -0.15625 C 0.988281 -0.351562 0.769531 -0.625 0.625 -0.96875 C 0.488281 -1.320312 0.421875 -1.71875 0.421875 -2.15625 C 0.421875 -2.601562 0.488281 -3 0.625 -3.34375 C 0.769531 -3.6875 0.988281 -3.957031 1.28125 -4.15625 C 1.582031 -4.351562 1.957031 -4.453125 2.40625 -4.453125 C 2.800781 -4.453125 3.132812 -4.367188 3.40625 -4.203125 C 3.675781 -4.035156 3.882812 -3.800781 4.03125 -3.5 Z M 2.546875 -0.421875 C 3.003906 -0.421875 3.363281 -0.554688 3.625 -0.828125 C 3.894531 -1.109375 4.03125 -1.550781 4.03125 -2.15625 C 4.03125 -2.769531 3.894531 -3.210938 3.625 -3.484375 C 3.363281 -3.753906 3.003906 -3.890625 2.546875 -3.890625 C 2.054688 -3.890625 1.695312 -3.742188 1.46875 -3.453125 C 1.238281 -3.171875 1.125 -2.738281 1.125 -2.15625 C 1.125 -1.582031 1.238281 -1.148438 1.46875 -0.859375 C 1.695312 -0.566406 2.054688 -0.421875 2.546875 -0.421875 Z M 2.546875 -0.421875 "/></g></g></g><g fill="#000000" fill-opacity="1"><g transform="translate(54.05023, 16.89362)"><g><path d="M 6.875 -5.75 L 6.875 0 L 6.15625 0 L 6.15625 -5.203125 L 4.21875 0 L 3.25 0 L 1.3125 -5.203125 L 1.3125 0 L 0.59375 0 L 0.59375 -5.75 L 1.84375 -5.75 L 3.734375 -0.640625 L 5.640625 -5.75 Z M 6.875 -5.75 "/></g></g></g><g fill="#000000" fill-opacity="1"><g transform="translate(61.110829, 16.89362)"><g><path d="M 2.59375 0.140625 C 2.101562 0.140625 1.695312 0.0390625 1.375 -0.15625 C 1.0625 -0.363281 0.820312 -0.640625 0.65625 -0.984375 C 0.5 -1.335938 0.421875 -1.734375 0.421875 -2.171875 C 0.421875 -2.597656 0.5 -2.984375 0.65625 -3.328125 C 0.820312 -3.679688 1.0625 -3.957031 1.375 -4.15625 C 1.695312 -4.351562 2.101562 -4.453125 2.59375 -4.453125 C 3.070312 -4.453125 3.472656 -4.347656 3.796875 -4.140625 C 4.117188 -3.941406 4.359375 -3.671875 4.515625 -3.328125 C 4.679688 -2.984375 4.765625 -2.597656 4.765625 -2.171875 C 4.765625 -1.734375 4.679688 -1.335938 4.515625 -0.984375 C 4.359375 -0.640625 4.117188 -0.363281 3.796875 -0.15625 C 3.472656 0.0390625 3.070312 0.140625 2.59375 0.140625 Z M 1.109375 -2.15625 C 1.109375 -1.550781 1.234375 -1.109375 1.484375 -0.828125 C 1.734375 -0.554688 2.101562 -0.421875 2.59375 -0.421875 C 3.082031 -0.421875 3.445312 -0.554688 3.6875 -0.828125 C 3.9375 -1.109375 4.0625 -1.550781 4.0625 -2.15625 C 4.0625 -2.769531 3.9375 -3.210938 3.6875 -3.484375 C 3.445312 -3.753906 3.082031 -3.890625 2.59375 -3.890625 C 2.101562 -3.890625 1.734375 -3.753906 1.484375 -3.484375 C 1.234375 -3.210938 1.109375 -2.769531 1.109375 -2.15625 Z M 1.109375 -2.15625 "/></g></g></g><g fill="#000000" fill-opacity="1"><g transform="translate(65.889903, 16.89362)"><g><path d="M 2.90625 -4.375 L 3.0625 -4.375 L 3.0625 -3.703125 L 2.875 -3.703125 C 2.445312 -3.710938 2.117188 -3.625 1.890625 -3.4375 C 1.671875 -3.257812 1.519531 -3.007812 1.4375 -2.6875 C 1.363281 -2.363281 1.328125 -2 1.328125 -1.59375 L 1.328125 0 L 0.625 0 L 0.625 -4.3125 L 1.328125 -4.3125 L 1.328125 -3.1875 C 1.453125 -3.539062 1.644531 -3.828125 1.90625 -4.046875 C 2.164062 -4.265625 2.5 -4.375 2.90625 -4.375 Z M 2.90625 -4.375 "/></g></g></g><g fill="#000000" fill-opacity="1"><g transform="translate(68.819557, 16.89362)"><g><path d="M 2.9375 -4.453125 C 3.394531 -4.453125 3.769531 -4.351562 4.0625 -4.15625 C 4.351562 -3.957031 4.566406 -3.6875 4.703125 -3.34375 C 4.847656 -3 4.921875 -2.601562 4.921875 -2.15625 C 4.921875 -1.71875 4.847656 -1.320312 4.703125 -0.96875 C 4.566406 -0.625 4.351562 -0.351562 4.0625 -0.15625 C 3.769531 0.0390625 3.394531 0.140625 2.9375 0.140625 C 2.539062 0.140625 2.207031 0.0546875 1.9375 -0.109375 C 1.664062 -0.273438 1.457031 -0.515625 1.3125 -0.828125 L 1.3125 1.734375 L 0.609375 1.734375 L 0.609375 -4.3125 L 1.3125 -4.3125 L 1.3125 -3.484375 C 1.457031 -3.796875 1.664062 -4.035156 1.9375 -4.203125 C 2.207031 -4.367188 2.539062 -4.453125 2.9375 -4.453125 Z M 2.796875 -0.421875 C 3.296875 -0.421875 3.65625 -0.5625 3.875 -0.84375 C 4.101562 -1.132812 4.21875 -1.570312 4.21875 -2.15625 C 4.21875 -2.738281 4.101562 -3.171875 3.875 -3.453125 C 3.65625 -3.742188 3.296875 -3.890625 2.796875 -3.890625 C 2.335938 -3.890625 1.972656 -3.753906 1.703125 -3.484375 C 1.441406 -3.210938 1.3125 -2.769531 1.3125 -2.15625 C 1.3125 -1.550781 1.441406 -1.109375 1.703125 -0.828125 C 1.972656 -0.554688 2.335938 -0.421875 2.796875 -0.421875 Z M 2.796875 -0.421875 "/></g></g></g><g fill="#000000" fill-opacity="1"><g transform="translate(73.762835, 16.89362)"><g><path d="M 2.984375 -4.453125 C 3.523438 -4.453125 3.914062 -4.304688 4.15625 -4.015625 C 4.394531 -3.734375 4.515625 -3.3125 4.515625 -2.75 L 4.515625 0 L 3.828125 0 L 3.828125 -2.671875 C 3.828125 -3.140625 3.734375 -3.457031 3.546875 -3.625 C 3.359375 -3.789062 3.109375 -3.875 2.796875 -3.875 C 2.316406 -3.875 1.953125 -3.6875 1.703125 -3.3125 C 1.453125 -2.945312 1.328125 -2.394531 1.328125 -1.65625 L 1.328125 0 L 0.625 0 L 0.625 -6.046875 L 1.328125 -6.046875 L 1.328125 -3.1875 C 1.453125 -3.582031 1.648438 -3.890625 1.921875 -4.109375 C 2.203125 -4.335938 2.554688 -4.453125 2.984375 -4.453125 Z M 2.984375 -4.453125 "/></g></g></g><g fill="#000000" fill-opacity="1"><g transform="translate(76.478411, 8.830006)"><g><path d="M 1.53125 -1.71875 L 1.53125 -1.546875 L 0.921875 -1.546875 L 0.921875 0 L 0.703125 0 L 0.703125 -1.546875 L 0.078125 -1.546875 L 0.078125 -1.71875 Z M 1.53125 -1.71875 "/></g></g></g><g fill="#000000" fill-opacity="1"><g transform="translate(77.982976, 8.830006)"><g><path d="M 2.0625 -1.71875 L 2.0625 0 L 1.84375 0 L 1.84375 -1.5625 L 1.265625 0 L 0.96875 0 L 0.390625 -1.5625 L 0.390625 0 L 0.171875 0 L 0.171875 -1.71875 L 0.546875 -1.71875 L 1.125 -0.1875 L 1.6875 -1.71875 Z M 2.0625 -1.71875 "/></g></g></g></svg>